{
    "asset" : {
        "generator" : "Khronos glTF Blender I/O v1.4.40",
        "version" : "2.0"
    },
    "scene" : 0,
    "scenes" : [
        {
            "name" : "Scene",
            "nodes" : [
                1
            ]
        }
    ],
    "nodes" : [
        {
            "mesh" : 0,
            "name" : "SM_Prop_Fence_Wood_Gate_Door_01_1",
            "translation" : [
                82.74790954589844,
                -1.9726181030273438,
                -70.80204772949219
            ]
        },
        {
            "children" : [
                0
            ],
            "name" : "SM_Prop_Fence_Wood_Gate_01",
            "rotation" : [
                0.4999999701976776,
                -0.5,
                0.5000001192092896,
                0.49999988079071045
            ],
            "scale" : [
                0.004950400907546282,
                0.010000002570450306,
                0.009999999776482582
            ],
            "translation" : [
                12.854000091552734,
                0.3514290452003479,
                -5.016850471496582
            ]
        }
    ],
    "materials" : [
        {
            "doubleSided" : true,
            "name" : "PolygonFarm_01_A",
            "pbrMetallicRoughness" : {
                "baseColorTexture" : {
                    "index" : 0,
                    "texCoord" : 0
                },
                "metallicFactor" : 0,
                "roughnessFactor" : 0.5527864098548889
            }
        }
    ],
    "meshes" : [
        {
            "name" : "Scene.047",
            "primitives" : [
                {
                    "attributes" : {
                        "POSITION" : 0,
                        "NORMAL" : 1,
                        "TEXCOORD_0" : 2
                    },
                    "indices" : 3,
                    "material" : 0
                }
            ]
        }
    ],
    "textures" : [
        {
            "sampler" : 0,
            "source" : 0
        }
    ],
    "images" : [
        {
            "mimeType" : "image/png",
            "name" : "PolygonFarm_Texture_01_A",
            "uri" : "textures/PolygonFarm_Texture_01_A.png"
        }
    ],
    "accessors" : [
        {
            "bufferView" : 0,
            "componentType" : 5126,
            "count" : 569,
            "max" : [
                333.4347839355469,
                6.072273254394531,
                61.77488708496094
            ],
            "min" : [
                -3.632511615753174,
                -6.072273254394531,
                -61.77488708496094
            ],
            "type" : "VEC3"
        },
        {
            "bufferView" : 1,
            "componentType" : 5126,
            "count" : 569,
            "type" : "VEC3"
        },
        {
            "bufferView" : 2,
            "componentType" : 5126,
            "count" : 569,
            "type" : "VEC2"
        },
        {
            "bufferView" : 3,
            "componentType" : 5123,
            "count" : 1062,
            "type" : "SCALAR"
        }
    ],
    "bufferViews" : [
        {
            "buffer" : 0,
            "byteLength" : 6828,
            "byteOffset" : 0
        },
        {
            "buffer" : 0,
            "byteLength" : 6828,
            "byteOffset" : 6828
        },
        {
            "buffer" : 0,
            "byteLength" : 4552,
            "byteOffset" : 13656
        },
        {
            "buffer" : 0,
            "byteLength" : 2124,
            "byteOffset" : 18208
        }
    ],
    "samplers" : [
        {
            "magFilter" : 9729,
            "minFilter" : 9986
        }
    ],
    "buffers" : [
        {
            "byteLength" : 20332,
            "uri" : "fencegatedoor.bin"
        }
    ]
}
