{
    "asset" : {
        "generator" : "Khronos glTF Blender I/O v1.4.40",
        "version" : "2.0"
    },
    "scene" : 0,
    "scenes" : [
        {
            "name" : "Scene",
            "nodes" : [
                0,
                1
            ]
        }
    ],
    "nodes" : [
        {
            "mesh" : 0,
            "name" : "house_posts",
            "rotation" : [
                0.7071068286895752,
                0,
                0,
                0.7071067094802856
            ],
            "scale" : [
                0.010050471872091293,
                0.009147588163614273,
                0.009999999776482582
            ],
            "translation" : [
                -4.564222812652588,
                1.626732587814331,
                -1.6136276721954346
            ]
        },
        {
            "mesh" : 1,
            "name" : "house_posts_collider",
            "scale" : [
                1.0050472021102905,
                1,
                0.9147588610649109
            ],
            "translation" : [
                -4.564223289489746,
                1.6267324686050415,
                -1.613627552986145
            ]
        }
    ],
    "materials" : [
        {
            "doubleSided" : true,
            "name" : "PolygonFarm_01_A.001",
            "pbrMetallicRoughness" : {
                "baseColorTexture" : {
                    "index" : 0,
                    "texCoord" : 0
                },
                "metallicFactor" : 0,
                "roughnessFactor" : 0.5527864098548889
            }
        }
    ],
    "meshes" : [
        {
            "name" : "Scene.006",
            "primitives" : [
                {
                    "attributes" : {
                        "POSITION" : 0,
                        "NORMAL" : 1,
                        "TEXCOORD_0" : 2,
                        "TEXCOORD_1" : 3
                    },
                    "indices" : 4,
                    "material" : 0
                }
            ]
        },
        {
            "name" : "Cube.010",
            "primitives" : [
                {
                    "attributes" : {
                        "POSITION" : 5,
                        "NORMAL" : 6,
                        "TEXCOORD_0" : 7
                    },
                    "indices" : 8
                }
            ]
        }
    ],
    "textures" : [
        {
            "sampler" : 0,
            "source" : 0
        }
    ],
    "images" : [
        {
            "mimeType" : "image/png",
            "name" : "PolygonFarm_Texture_01_A",
            "uri" : "textures/PolygonFarm_Texture_01_A.png"
        }
    ],
    "accessors" : [
        {
            "bufferView" : 0,
            "componentType" : 5126,
            "count" : 1783,
            "max" : [
                387.7605285644531,
                39.8580322265625,
                76.4105224609375
            ],
            "min" : [
                -384.7856140136719,
                -123.13131713867188,
                -179.70655822753906
            ],
            "type" : "VEC3"
        },
        {
            "bufferView" : 1,
            "componentType" : 5126,
            "count" : 1783,
            "type" : "VEC3"
        },
        {
            "bufferView" : 2,
            "componentType" : 5126,
            "count" : 1783,
            "type" : "VEC2"
        },
        {
            "bufferView" : 3,
            "componentType" : 5126,
            "count" : 1783,
            "type" : "VEC2"
        },
        {
            "bufferView" : 4,
            "componentType" : 5123,
            "count" : 2526,
            "type" : "SCALAR"
        },
        {
            "bufferView" : 5,
            "componentType" : 5126,
            "count" : 46,
            "max" : [
                4.200528144836426,
                2.319011688232422,
                0.5386068224906921
            ],
            "min" : [
                -4.073401927947998,
                -0.7289319038391113,
                -1.425592064857483
            ],
            "type" : "VEC3"
        },
        {
            "bufferView" : 6,
            "componentType" : 5126,
            "count" : 46,
            "type" : "VEC3"
        },
        {
            "bufferView" : 7,
            "componentType" : 5126,
            "count" : 46,
            "type" : "VEC2"
        },
        {
            "bufferView" : 8,
            "componentType" : 5123,
            "count" : 66,
            "type" : "SCALAR"
        }
    ],
    "bufferViews" : [
        {
            "buffer" : 0,
            "byteLength" : 21396,
            "byteOffset" : 0
        },
        {
            "buffer" : 0,
            "byteLength" : 21396,
            "byteOffset" : 21396
        },
        {
            "buffer" : 0,
            "byteLength" : 14264,
            "byteOffset" : 42792
        },
        {
            "buffer" : 0,
            "byteLength" : 14264,
            "byteOffset" : 57056
        },
        {
            "buffer" : 0,
            "byteLength" : 5052,
            "byteOffset" : 71320
        },
        {
            "buffer" : 0,
            "byteLength" : 552,
            "byteOffset" : 76372
        },
        {
            "buffer" : 0,
            "byteLength" : 552,
            "byteOffset" : 76924
        },
        {
            "buffer" : 0,
            "byteLength" : 368,
            "byteOffset" : 77476
        },
        {
            "buffer" : 0,
            "byteLength" : 132,
            "byteOffset" : 77844
        }
    ],
    "samplers" : [
        {
            "magFilter" : 9729,
            "minFilter" : 9986
        }
    ],
    "buffers" : [
        {
            "byteLength" : 77976,
            "uri" : "house_posts.bin"
        }
    ]
}
