{
    "asset" : {
        "generator" : "Khronos glTF Blender I/O v1.4.40",
        "version" : "2.0"
    },
    "scene" : 0,
    "scenes" : [
        {
            "name" : "Scene",
            "nodes" : [
                0,
                1
            ]
        }
    ],
    "nodes" : [
        {
            "mesh" : 0,
            "name" : "house_posts",
            "rotation" : [
                0.7071068286895752,
                0,
                0,
                0.7071067094802856
            ],
            "scale" : [
                0.009999999776482582,
                0.009999999776482582,
                0.009999999776482582
            ]
        },
        {
            "mesh" : 1,
            "name" : "house_posts_collider",
            "translation" : [
                0,
                1.4940663576126099,
                3.3779897689819336
            ]
        }
    ],
    "materials" : [
        {
            "doubleSided" : true,
            "name" : "PolygonFarm_01_A.001",
            "pbrMetallicRoughness" : {
                "baseColorTexture" : {
                    "index" : 0,
                    "texCoord" : 0
                },
                "metallicFactor" : 0,
                "roughnessFactor" : 0.5527864098548889
            }
        }
    ],
    "meshes" : [
        {
            "name" : "Scene.006",
            "primitives" : [
                {
                    "attributes" : {
                        "POSITION" : 0,
                        "NORMAL" : 1,
                        "TEXCOORD_0" : 2,
                        "TEXCOORD_1" : 3
                    },
                    "indices" : 4,
                    "material" : 0
                }
            ]
        },
        {
            "name" : "Cube.010",
            "primitives" : [
                {
                    "attributes" : {
                        "POSITION" : 5,
                        "NORMAL" : 6,
                        "TEXCOORD_0" : 7
                    },
                    "indices" : 8
                }
            ]
        }
    ],
    "textures" : [
        {
            "sampler" : 0,
            "source" : 0
        }
    ],
    "images" : [
        {
            "mimeType" : "image/png",
            "name" : "PolygonFarm_Texture_01_A",
            "uri" : "textures/PolygonFarm_Texture_01_A.png"
        }
    ],
    "accessors" : [
        {
            "bufferView" : 0,
            "componentType" : 5126,
            "count" : 1785,
            "max" : [
                400.9778137207031,
                366.9999694824219,
                -69.87495422363281
            ],
            "min" : [
                -371.5683288574219,
                128.1279296875,
                -325.9920349121094
            ],
            "type" : "VEC3"
        },
        {
            "bufferView" : 1,
            "componentType" : 5126,
            "count" : 1785,
            "type" : "VEC3"
        },
        {
            "bufferView" : 2,
            "componentType" : 5126,
            "count" : 1785,
            "type" : "VEC2"
        },
        {
            "bufferView" : 3,
            "componentType" : 5126,
            "count" : 1785,
            "type" : "VEC2"
        },
        {
            "bufferView" : 4,
            "componentType" : 5123,
            "count" : 2526,
            "type" : "SCALAR"
        },
        {
            "bufferView" : 5,
            "componentType" : 5126,
            "count" : 46,
            "max" : [
                4.332700729370117,
                2.28779935836792,
                0.4320368766784668
            ],
            "min" : [
                -3.9412293434143066,
                -0.7601441144943237,
                -2.2909891605377197
            ],
            "type" : "VEC3"
        },
        {
            "bufferView" : 6,
            "componentType" : 5126,
            "count" : 46,
            "type" : "VEC3"
        },
        {
            "bufferView" : 7,
            "componentType" : 5126,
            "count" : 46,
            "type" : "VEC2"
        },
        {
            "bufferView" : 8,
            "componentType" : 5123,
            "count" : 66,
            "type" : "SCALAR"
        }
    ],
    "bufferViews" : [
        {
            "buffer" : 0,
            "byteLength" : 21420,
            "byteOffset" : 0
        },
        {
            "buffer" : 0,
            "byteLength" : 21420,
            "byteOffset" : 21420
        },
        {
            "buffer" : 0,
            "byteLength" : 14280,
            "byteOffset" : 42840
        },
        {
            "buffer" : 0,
            "byteLength" : 14280,
            "byteOffset" : 57120
        },
        {
            "buffer" : 0,
            "byteLength" : 5052,
            "byteOffset" : 71400
        },
        {
            "buffer" : 0,
            "byteLength" : 552,
            "byteOffset" : 76452
        },
        {
            "buffer" : 0,
            "byteLength" : 552,
            "byteOffset" : 77004
        },
        {
            "buffer" : 0,
            "byteLength" : 368,
            "byteOffset" : 77556
        },
        {
            "buffer" : 0,
            "byteLength" : 132,
            "byteOffset" : 77924
        }
    ],
    "samplers" : [
        {
            "magFilter" : 9729,
            "minFilter" : 9986
        }
    ],
    "buffers" : [
        {
            "byteLength" : 78056,
            "uri" : "house_posts.bin"
        }
    ]
}
