{
    "asset" : {
        "generator" : "Khronos glTF Blender I/O v1.4.40",
        "version" : "2.0"
    },
    "scene" : 0,
    "scenes" : [
        {
            "name" : "Scene",
            "nodes" : [
                0,
                1
            ]
        }
    ],
    "nodes" : [
        {
            "mesh" : 0,
            "name" : "house_side2",
            "rotation" : [
                0.7071068286895752,
                0,
                0,
                0.7071067094802856
            ],
            "scale" : [
                0.010050471872091293,
                0.009147588163614273,
                0.009999999776482582
            ],
            "translation" : [
                -8.375394821166992,
                2.1244187355041504,
                -5.5855607986450195
            ]
        },
        {
            "mesh" : 1,
            "name" : "house_side2_collider",
            "scale" : [
                1.0050472021102905,
                1,
                0.9147588610649109
            ],
            "translation" : [
                -8.375393867492676,
                2.124418258666992,
                -5.5855607986450195
            ]
        }
    ],
    "materials" : [
        {
            "doubleSided" : true,
            "name" : "PolygonFarm_01_A.001",
            "pbrMetallicRoughness" : {
                "baseColorTexture" : {
                    "index" : 0,
                    "texCoord" : 0
                },
                "metallicFactor" : 0,
                "roughnessFactor" : 0.5527864098548889
            }
        }
    ],
    "meshes" : [
        {
            "name" : "Scene.005",
            "primitives" : [
                {
                    "attributes" : {
                        "POSITION" : 0,
                        "NORMAL" : 1,
                        "TEXCOORD_0" : 2,
                        "TEXCOORD_1" : 3
                    },
                    "indices" : 4,
                    "material" : 0
                }
            ]
        },
        {
            "name" : "Cube.005",
            "primitives" : [
                {
                    "attributes" : {
                        "POSITION" : 5,
                        "NORMAL" : 6,
                        "TEXCOORD_0" : 7
                    },
                    "indices" : 8
                }
            ]
        }
    ],
    "textures" : [
        {
            "sampler" : 0,
            "source" : 0
        }
    ],
    "images" : [
        {
            "mimeType" : "image/png",
            "name" : "PolygonFarm_Texture_01_A",
            "uri" : "textures/PolygonFarm_Texture_01_A.png"
        }
    ],
    "accessors" : [
        {
            "bufferView" : 0,
            "componentType" : 5126,
            "count" : 1401,
            "max" : [
                59.406982421875,
                291.0741882324219,
                132.17433166503906
            ],
            "min" : [
                -42.955413818359375,
                -285.16595458984375,
                -180.8734130859375
            ],
            "type" : "VEC3"
        },
        {
            "bufferView" : 1,
            "componentType" : 5126,
            "count" : 1401,
            "type" : "VEC3"
        },
        {
            "bufferView" : 2,
            "componentType" : 5126,
            "count" : 1401,
            "type" : "VEC2"
        },
        {
            "bufferView" : 3,
            "componentType" : 5126,
            "count" : 1401,
            "type" : "VEC2"
        },
        {
            "bufferView" : 4,
            "componentType" : 5123,
            "count" : 2520,
            "type" : "SCALAR"
        },
        {
            "bufferView" : 5,
            "componentType" : 5126,
            "count" : 12,
            "max" : [
                0.14254546165466309,
                1.8145335912704468,
                3.0078907012939453
            ],
            "min" : [
                -0.2813701629638672,
                -2.1720376014709473,
                -3.3387436866760254
            ],
            "type" : "VEC3"
        },
        {
            "bufferView" : 6,
            "componentType" : 5126,
            "count" : 12,
            "type" : "VEC3"
        },
        {
            "bufferView" : 7,
            "componentType" : 5126,
            "count" : 12,
            "type" : "VEC2"
        },
        {
            "bufferView" : 8,
            "componentType" : 5123,
            "count" : 18,
            "type" : "SCALAR"
        }
    ],
    "bufferViews" : [
        {
            "buffer" : 0,
            "byteLength" : 16812,
            "byteOffset" : 0
        },
        {
            "buffer" : 0,
            "byteLength" : 16812,
            "byteOffset" : 16812
        },
        {
            "buffer" : 0,
            "byteLength" : 11208,
            "byteOffset" : 33624
        },
        {
            "buffer" : 0,
            "byteLength" : 11208,
            "byteOffset" : 44832
        },
        {
            "buffer" : 0,
            "byteLength" : 5040,
            "byteOffset" : 56040
        },
        {
            "buffer" : 0,
            "byteLength" : 144,
            "byteOffset" : 61080
        },
        {
            "buffer" : 0,
            "byteLength" : 144,
            "byteOffset" : 61224
        },
        {
            "buffer" : 0,
            "byteLength" : 96,
            "byteOffset" : 61368
        },
        {
            "buffer" : 0,
            "byteLength" : 36,
            "byteOffset" : 61464
        }
    ],
    "samplers" : [
        {
            "magFilter" : 9729,
            "minFilter" : 9986
        }
    ],
    "buffers" : [
        {
            "byteLength" : 61500,
            "uri" : "house_side2.bin"
        }
    ]
}
