{
    "asset" : {
        "generator" : "Khronos glTF Blender I/O v1.4.40",
        "version" : "2.0"
    },
    "scene" : 0,
    "scenes" : [
        {
            "name" : "Scene",
            "nodes" : [
                0,
                1
            ]
        }
    ],
    "nodes" : [
        {
            "mesh" : 0,
            "name" : "house_back",
            "rotation" : [
                0.7071068286895752,
                0,
                0,
                0.7071068286895752
            ],
            "scale" : [
                0.010050471872091293,
                0.009147588163614273,
                0.009999999776482582
            ]
        },
        {
            "mesh" : 1,
            "name" : "house_back_collider",
            "scale" : [
                1.0050472021102905,
                1,
                0.9147588610649109
            ]
        }
    ],
    "materials" : [
        {
            "doubleSided" : true,
            "name" : "PolygonFarm_01_A.001",
            "pbrMetallicRoughness" : {
                "baseColorTexture" : {
                    "index" : 0,
                    "texCoord" : 0
                },
                "metallicFactor" : 0,
                "roughnessFactor" : 0.5527864098548889
            }
        }
    ],
    "meshes" : [
        {
            "name" : "Scene.002",
            "primitives" : [
                {
                    "attributes" : {
                        "POSITION" : 0,
                        "NORMAL" : 1,
                        "TEXCOORD_0" : 2,
                        "TEXCOORD_1" : 3
                    },
                    "indices" : 4,
                    "material" : 0
                }
            ]
        },
        {
            "name" : "Cube.003",
            "primitives" : [
                {
                    "attributes" : {
                        "POSITION" : 5,
                        "NORMAL" : 6,
                        "TEXCOORD_0" : 7
                    },
                    "indices" : 8
                }
            ]
        }
    ],
    "textures" : [
        {
            "sampler" : 0,
            "source" : 0
        }
    ],
    "images" : [
        {
            "mimeType" : "image/png",
            "name" : "PolygonFarm_Texture_01_A",
            "uri" : "textures/PolygonFarm_Texture_01_A.png"
        }
    ],
    "accessors" : [
        {
            "bufferView" : 0,
            "componentType" : 5126,
            "count" : 1406,
            "max" : [
                401.7937316894531,
                26.480377197265625,
                134.04811096191406
            ],
            "min" : [
                -396.2063903808594,
                -22.3211669921875,
                -168.4363555908203
            ],
            "type" : "VEC3"
        },
        {
            "bufferView" : 1,
            "componentType" : 5126,
            "count" : 1406,
            "type" : "VEC3"
        },
        {
            "bufferView" : 2,
            "componentType" : 5126,
            "count" : 1406,
            "type" : "VEC2"
        },
        {
            "bufferView" : 3,
            "componentType" : 5126,
            "count" : 1406,
            "type" : "VEC2"
        },
        {
            "bufferView" : 4,
            "componentType" : 5123,
            "count" : 2544,
            "type" : "SCALAR"
        },
        {
            "bufferView" : 5,
            "componentType" : 5126,
            "count" : 20,
            "max" : [
                3.9655003547668457,
                1.688940167427063,
                0.13644170761108398
            ],
            "min" : [
                -4.074253082275391,
                -2.296180248260498,
                -0.35858774185180664
            ],
            "type" : "VEC3"
        },
        {
            "bufferView" : 6,
            "componentType" : 5126,
            "count" : 20,
            "type" : "VEC3"
        },
        {
            "bufferView" : 7,
            "componentType" : 5126,
            "count" : 20,
            "type" : "VEC2"
        },
        {
            "bufferView" : 8,
            "componentType" : 5123,
            "count" : 24,
            "type" : "SCALAR"
        }
    ],
    "bufferViews" : [
        {
            "buffer" : 0,
            "byteLength" : 16872,
            "byteOffset" : 0
        },
        {
            "buffer" : 0,
            "byteLength" : 16872,
            "byteOffset" : 16872
        },
        {
            "buffer" : 0,
            "byteLength" : 11248,
            "byteOffset" : 33744
        },
        {
            "buffer" : 0,
            "byteLength" : 11248,
            "byteOffset" : 44992
        },
        {
            "buffer" : 0,
            "byteLength" : 5088,
            "byteOffset" : 56240
        },
        {
            "buffer" : 0,
            "byteLength" : 240,
            "byteOffset" : 61328
        },
        {
            "buffer" : 0,
            "byteLength" : 240,
            "byteOffset" : 61568
        },
        {
            "buffer" : 0,
            "byteLength" : 160,
            "byteOffset" : 61808
        },
        {
            "buffer" : 0,
            "byteLength" : 48,
            "byteOffset" : 61968
        }
    ],
    "samplers" : [
        {
            "magFilter" : 9729,
            "minFilter" : 9986
        }
    ],
    "buffers" : [
        {
            "byteLength" : 62016,
            "uri" : "house_back.bin"
        }
    ]
}
