{
    "asset" : {
        "generator" : "Khronos glTF Blender I/O v1.4.40",
        "version" : "2.0"
    },
    "scene" : 0,
    "scenes" : [
        {
            "name" : "Scene",
            "nodes" : [
                0,
                1
            ]
        }
    ],
    "nodes" : [
        {
            "mesh" : 0,
            "name" : "house_roof",
            "rotation" : [
                0.7071068286895752,
                0,
                0,
                0.7071068286895752
            ],
            "scale" : [
                0.010050471872091293,
                0.009147588163614273,
                0.009999999776482582
            ]
        },
        {
            "mesh" : 1,
            "name" : "house_roof_collider",
            "scale" : [
                1.0050472021102905,
                1,
                0.9147588610649109
            ]
        }
    ],
    "materials" : [
        {
            "doubleSided" : true,
            "name" : "PolygonFarm_01_A.001",
            "pbrMetallicRoughness" : {
                "baseColorTexture" : {
                    "index" : 0,
                    "texCoord" : 0
                },
                "metallicFactor" : 0,
                "roughnessFactor" : 0.5527864098548889
            }
        }
    ],
    "meshes" : [
        {
            "name" : "Scene.003",
            "primitives" : [
                {
                    "attributes" : {
                        "POSITION" : 0,
                        "NORMAL" : 1,
                        "TEXCOORD_0" : 2,
                        "TEXCOORD_1" : 3
                    },
                    "indices" : 4,
                    "material" : 0
                }
            ]
        },
        {
            "name" : "Cube.006",
            "primitives" : [
                {
                    "attributes" : {
                        "POSITION" : 5,
                        "NORMAL" : 6,
                        "TEXCOORD_0" : 7
                    },
                    "indices" : 8
                }
            ]
        }
    ],
    "textures" : [
        {
            "sampler" : 0,
            "source" : 0
        }
    ],
    "images" : [
        {
            "mimeType" : "image/png",
            "name" : "PolygonFarm_Texture_01_A",
            "uri" : "textures/PolygonFarm_Texture_01_A.png"
        }
    ],
    "accessors" : [
        {
            "bufferView" : 0,
            "componentType" : 5126,
            "count" : 4457,
            "max" : [
                446.483154296875,
                346.66943359375,
                109.22857666015625
            ],
            "min" : [
                -397.0511474609375,
                -499.1806640625,
                -243.09033203125
            ],
            "type" : "VEC3"
        },
        {
            "bufferView" : 1,
            "componentType" : 5126,
            "count" : 4457,
            "type" : "VEC3"
        },
        {
            "bufferView" : 2,
            "componentType" : 5126,
            "count" : 4457,
            "type" : "VEC2"
        },
        {
            "bufferView" : 3,
            "componentType" : 5126,
            "count" : 4457,
            "type" : "VEC2"
        },
        {
            "bufferView" : 4,
            "componentType" : 5123,
            "count" : 7605,
            "type" : "SCALAR"
        },
        {
            "bufferView" : 5,
            "componentType" : 5126,
            "count" : 57,
            "max" : [
                4.5301713943481445,
                2.446761131286621,
                3.4156785011291504
            ],
            "min" : [
                -3.963623523712158,
                -0.9075025320053101,
                -4.911431312561035
            ],
            "type" : "VEC3"
        },
        {
            "bufferView" : 6,
            "componentType" : 5126,
            "count" : 57,
            "type" : "VEC3"
        },
        {
            "bufferView" : 7,
            "componentType" : 5126,
            "count" : 57,
            "type" : "VEC2"
        },
        {
            "bufferView" : 8,
            "componentType" : 5123,
            "count" : 81,
            "type" : "SCALAR"
        }
    ],
    "bufferViews" : [
        {
            "buffer" : 0,
            "byteLength" : 53484,
            "byteOffset" : 0
        },
        {
            "buffer" : 0,
            "byteLength" : 53484,
            "byteOffset" : 53484
        },
        {
            "buffer" : 0,
            "byteLength" : 35656,
            "byteOffset" : 106968
        },
        {
            "buffer" : 0,
            "byteLength" : 35656,
            "byteOffset" : 142624
        },
        {
            "buffer" : 0,
            "byteLength" : 15210,
            "byteOffset" : 178280
        },
        {
            "buffer" : 0,
            "byteLength" : 684,
            "byteOffset" : 193492
        },
        {
            "buffer" : 0,
            "byteLength" : 684,
            "byteOffset" : 194176
        },
        {
            "buffer" : 0,
            "byteLength" : 456,
            "byteOffset" : 194860
        },
        {
            "buffer" : 0,
            "byteLength" : 162,
            "byteOffset" : 195316
        }
    ],
    "samplers" : [
        {
            "magFilter" : 9729,
            "minFilter" : 9986
        }
    ],
    "buffers" : [
        {
            "byteLength" : 195480,
            "uri" : "house_roof.bin"
        }
    ]
}
