{
    "asset" : {
        "generator" : "Khronos glTF Blender I/O v1.4.40",
        "version" : "2.0"
    },
    "scene" : 0,
    "scenes" : [
        {
            "name" : "Scene",
            "nodes" : [
                0,
                1,
                4
            ]
        }
    ],
    "nodes" : [
        {
            "name" : "Light",
            "rotation" : [
                0.16907575726509094,
                0.7558803558349609,
                -0.27217137813568115,
                0.570947527885437
            ],
            "translation" : [
                4.076245307922363,
                5.903861999511719,
                -1.0054539442062378
            ]
        },
        {
            "name" : "Camera",
            "rotation" : [
                0.483536034822464,
                0.33687159419059753,
                -0.20870360732078552,
                0.7804827094078064
            ],
            "translation" : [
                7.358891487121582,
                4.958309173583984,
                6.925790786743164
            ]
        },
        {
            "mesh" : 0,
            "name" : "SM_Bld_Farmhouse_02_Door_01",
            "translation" : [
                -32.503875732421875,
                128.0677490234375,
                -87.02742767333984
            ]
        },
        {
            "mesh" : 1,
            "name" : "SM_Bld_Farmhouse_02_Glass",
            "translation" : [
                16.096099853515625,
                -141.8719482421875,
                -230.65321350097656
            ]
        },
        {
            "children" : [
                2,
                3
            ],
            "mesh" : 2,
            "name" : "SM_Bld_Farmhouse_02",
            "rotation" : [
                0.7071068286895752,
                0,
                0,
                0.7071067094802856
            ],
            "scale" : [
                0.009999999776482582,
                0.009999999776482582,
                0.009999999776482582
            ]
        }
    ],
    "materials" : [
        {
            "doubleSided" : true,
            "name" : "PolygonFarm_01_A",
            "pbrMetallicRoughness" : {
                "baseColorTexture" : {
                    "index" : 0,
                    "texCoord" : 0
                },
                "metallicFactor" : 0,
                "roughnessFactor" : 0.5527864098548889
            }
        },
        {
            "doubleSided" : true,
            "name" : "PolygonFarm_Glass",
            "pbrMetallicRoughness" : {
                "baseColorTexture" : {
                    "index" : 1,
                    "texCoord" : 0
                },
                "metallicFactor" : 0,
                "roughnessFactor" : 0.5527864098548889
            }
        }
    ],
    "meshes" : [
        {
            "name" : "Scene.001",
            "primitives" : [
                {
                    "attributes" : {
                        "POSITION" : 0,
                        "NORMAL" : 1,
                        "TEXCOORD_0" : 2
                    },
                    "indices" : 3,
                    "material" : 0
                }
            ]
        },
        {
            "name" : "Scene.002",
            "primitives" : [
                {
                    "attributes" : {
                        "POSITION" : 4,
                        "NORMAL" : 5,
                        "TEXCOORD_0" : 6
                    },
                    "indices" : 7,
                    "material" : 1
                }
            ]
        },
        {
            "name" : "Scene",
            "primitives" : [
                {
                    "attributes" : {
                        "POSITION" : 8,
                        "NORMAL" : 9,
                        "TEXCOORD_0" : 10,
                        "TEXCOORD_1" : 11
                    },
                    "indices" : 12,
                    "material" : 0
                }
            ]
        }
    ],
    "textures" : [
        {
            "sampler" : 0,
            "source" : 0
        },
        {
            "sampler" : 0,
            "source" : 0
        }
    ],
    "images" : [
        {
            "mimeType" : "image/png",
            "name" : "PolygonFarm_Texture_01_A",
            "uri" : "textures/PolygonFarm_Texture_01_A.png"
        }
    ],
    "accessors" : [
        {
            "bufferView" : 0,
            "componentType" : 5126,
            "count" : 691,
            "max" : [
                102.52978515625,
                11.8770751953125,
                -3.171439857396763e-07
            ],
            "min" : [
                0,
                -11.8773193359375,
                -222.43482971191406
            ],
            "type" : "VEC3"
        },
        {
            "bufferView" : 1,
            "componentType" : 5126,
            "count" : 691,
            "type" : "VEC3"
        },
        {
            "bufferView" : 2,
            "componentType" : 5126,
            "count" : 691,
            "type" : "VEC2"
        },
        {
            "bufferView" : 3,
            "componentType" : 5123,
            "count" : 1200,
            "type" : "SCALAR"
        },
        {
            "bufferView" : 4,
            "componentType" : 5126,
            "count" : 144,
            "max" : [
                381.9893493652344,
                256.9891357421875,
                72.7845687866211
            ],
            "min" : [
                -381.9893493652344,
                -256.9893798828125,
                -72.7845687866211
            ],
            "type" : "VEC3"
        },
        {
            "bufferView" : 5,
            "componentType" : 5126,
            "count" : 144,
            "type" : "VEC3"
        },
        {
            "bufferView" : 6,
            "componentType" : 5126,
            "count" : 144,
            "type" : "VEC2"
        },
        {
            "bufferView" : 7,
            "componentType" : 5123,
            "count" : 216,
            "type" : "SCALAR"
        },
        {
            "bufferView" : 8,
            "componentType" : 5126,
            "count" : 11952,
            "max" : [
                429.2187805175781,
                460.4423522949219,
                17.351076126098633
            ],
            "min" : [
                -429.2187805175781,
                -460.442626953125,
                -662.0790405273438
            ],
            "type" : "VEC3"
        },
        {
            "bufferView" : 9,
            "componentType" : 5126,
            "count" : 11952,
            "type" : "VEC3"
        },
        {
            "bufferView" : 10,
            "componentType" : 5126,
            "count" : 11952,
            "type" : "VEC2"
        },
        {
            "bufferView" : 11,
            "componentType" : 5126,
            "count" : 11952,
            "type" : "VEC2"
        },
        {
            "bufferView" : 12,
            "componentType" : 5123,
            "count" : 20361,
            "type" : "SCALAR"
        }
    ],
    "bufferViews" : [
        {
            "buffer" : 0,
            "byteLength" : 8292,
            "byteOffset" : 0
        },
        {
            "buffer" : 0,
            "byteLength" : 8292,
            "byteOffset" : 8292
        },
        {
            "buffer" : 0,
            "byteLength" : 5528,
            "byteOffset" : 16584
        },
        {
            "buffer" : 0,
            "byteLength" : 2400,
            "byteOffset" : 22112
        },
        {
            "buffer" : 0,
            "byteLength" : 1728,
            "byteOffset" : 24512
        },
        {
            "buffer" : 0,
            "byteLength" : 1728,
            "byteOffset" : 26240
        },
        {
            "buffer" : 0,
            "byteLength" : 1152,
            "byteOffset" : 27968
        },
        {
            "buffer" : 0,
            "byteLength" : 432,
            "byteOffset" : 29120
        },
        {
            "buffer" : 0,
            "byteLength" : 143424,
            "byteOffset" : 29552
        },
        {
            "buffer" : 0,
            "byteLength" : 143424,
            "byteOffset" : 172976
        },
        {
            "buffer" : 0,
            "byteLength" : 95616,
            "byteOffset" : 316400
        },
        {
            "buffer" : 0,
            "byteLength" : 95616,
            "byteOffset" : 412016
        },
        {
            "buffer" : 0,
            "byteLength" : 40722,
            "byteOffset" : 507632
        }
    ],
    "samplers" : [
        {
            "magFilter" : 9729,
            "minFilter" : 9986
        }
    ],
    "buffers" : [
        {
            "byteLength" : 548356,
            "uri" : "house.bin"
        }
    ]
}
