{
    "asset" : {
        "generator" : "Khronos glTF Blender I/O v1.4.40",
        "version" : "2.0"
    },
    "scene" : 0,
    "scenes" : [
        {
            "name" : "Scene",
            "nodes" : [
                0,
                1
            ]
        }
    ],
    "nodes" : [
        {
            "mesh" : 0,
            "name" : "house_front",
            "rotation" : [
                0.7071068286895752,
                0,
                0,
                0.7071067094802856
            ],
            "scale" : [
                0.010050471872091293,
                0.009147588163614273,
                0.009999999776482582
            ],
            "translation" : [
                -4.520045280456543,
                2.2185096740722656,
                -2.8054652214050293
            ]
        },
        {
            "mesh" : 1,
            "name" : "house_front_collider",
            "scale" : [
                1.0050472021102905,
                1,
                0.9147588610649109
            ],
            "translation" : [
                -4.520045757293701,
                2.2185091972351074,
                -2.8054656982421875
            ]
        }
    ],
    "materials" : [
        {
            "doubleSided" : true,
            "name" : "PolygonFarm_01_A.001",
            "pbrMetallicRoughness" : {
                "baseColorTexture" : {
                    "index" : 0,
                    "texCoord" : 0
                },
                "metallicFactor" : 0,
                "roughnessFactor" : 0.5527864098548889
            }
        }
    ],
    "meshes" : [
        {
            "name" : "Scene.001",
            "primitives" : [
                {
                    "attributes" : {
                        "POSITION" : 0,
                        "NORMAL" : 1,
                        "TEXCOORD_0" : 2,
                        "TEXCOORD_1" : 3
                    },
                    "indices" : 4,
                    "material" : 0
                }
            ]
        },
        {
            "name" : "Cube.009",
            "primitives" : [
                {
                    "attributes" : {
                        "POSITION" : 5,
                        "NORMAL" : 6,
                        "TEXCOORD_0" : 7
                    },
                    "indices" : 8
                }
            ]
        }
    ],
    "textures" : [
        {
            "sampler" : 0,
            "source" : 0
        }
    ],
    "images" : [
        {
            "mimeType" : "image/png",
            "name" : "PolygonFarm_Texture_01_A",
            "uri" : "textures/PolygonFarm_Texture_01_A.png"
        }
    ],
    "accessors" : [
        {
            "bufferView" : 0,
            "componentType" : 5126,
            "count" : 1239,
            "max" : [
                397.4833679199219,
                22.329437255859375,
                132.5028076171875
            ],
            "min" : [
                -400.5167541503906,
                -35.58470153808594,
                -171.46429443359375
            ],
            "type" : "VEC3"
        },
        {
            "bufferView" : 1,
            "componentType" : 5126,
            "count" : 1239,
            "type" : "VEC3"
        },
        {
            "bufferView" : 2,
            "componentType" : 5126,
            "count" : 1239,
            "type" : "VEC2"
        },
        {
            "bufferView" : 3,
            "componentType" : 5126,
            "count" : 1239,
            "type" : "VEC2"
        },
        {
            "bufferView" : 4,
            "componentType" : 5123,
            "count" : 2208,
            "type" : "SCALAR"
        },
        {
            "bufferView" : 5,
            "componentType" : 5126,
            "count" : 52,
            "max" : [
                4.156572341918945,
                1.7272347211837769,
                0.12520349025726318
            ],
            "min" : [
                -4.1173577308654785,
                -1.3207087516784668,
                -0.12269341945648193
            ],
            "type" : "VEC3"
        },
        {
            "bufferView" : 6,
            "componentType" : 5126,
            "count" : 52,
            "type" : "VEC3"
        },
        {
            "bufferView" : 7,
            "componentType" : 5126,
            "count" : 52,
            "type" : "VEC2"
        },
        {
            "bufferView" : 8,
            "componentType" : 5123,
            "count" : 72,
            "type" : "SCALAR"
        }
    ],
    "bufferViews" : [
        {
            "buffer" : 0,
            "byteLength" : 14868,
            "byteOffset" : 0
        },
        {
            "buffer" : 0,
            "byteLength" : 14868,
            "byteOffset" : 14868
        },
        {
            "buffer" : 0,
            "byteLength" : 9912,
            "byteOffset" : 29736
        },
        {
            "buffer" : 0,
            "byteLength" : 9912,
            "byteOffset" : 39648
        },
        {
            "buffer" : 0,
            "byteLength" : 4416,
            "byteOffset" : 49560
        },
        {
            "buffer" : 0,
            "byteLength" : 624,
            "byteOffset" : 53976
        },
        {
            "buffer" : 0,
            "byteLength" : 624,
            "byteOffset" : 54600
        },
        {
            "buffer" : 0,
            "byteLength" : 416,
            "byteOffset" : 55224
        },
        {
            "buffer" : 0,
            "byteLength" : 144,
            "byteOffset" : 55640
        }
    ],
    "samplers" : [
        {
            "magFilter" : 9729,
            "minFilter" : 9986
        }
    ],
    "buffers" : [
        {
            "byteLength" : 55784,
            "uri" : "house_front.bin"
        }
    ]
}
