{
    "asset" : {
        "generator" : "Khronos glTF Blender I/O v1.4.40",
        "version" : "2.0"
    },
    "scene" : 0,
    "scenes" : [
        {
            "name" : "Scene",
            "nodes" : [
                0,
                1
            ]
        }
    ],
    "nodes" : [
        {
            "mesh" : 0,
            "name" : "house_floor",
            "rotation" : [
                0.7071068286895752,
                0,
                0,
                0.7071067094802856
            ],
            "scale" : [
                0.010050471872091293,
                0.009147588163614273,
                0.009999999776482582
            ]
        },
        {
            "mesh" : 1,
            "name" : "house_floor_collider",
            "scale" : [
                1.0050472021102905,
                1,
                0.9147588610649109
            ]
        }
    ],
    "materials" : [
        {
            "doubleSided" : true,
            "name" : "PolygonFarm_01_A.001",
            "pbrMetallicRoughness" : {
                "baseColorTexture" : {
                    "index" : 0,
                    "texCoord" : 0
                },
                "metallicFactor" : 0,
                "roughnessFactor" : 0.5527864098548889
            }
        }
    ],
    "meshes" : [
        {
            "name" : "Scene",
            "primitives" : [
                {
                    "attributes" : {
                        "POSITION" : 0,
                        "NORMAL" : 1,
                        "TEXCOORD_0" : 2,
                        "TEXCOORD_1" : 3
                    },
                    "indices" : 4,
                    "material" : 0
                }
            ]
        },
        {
            "name" : "Cube.008",
            "primitives" : [
                {
                    "attributes" : {
                        "POSITION" : 5,
                        "NORMAL" : 6,
                        "TEXCOORD_0" : 7
                    },
                    "indices" : 8
                }
            ]
        }
    ],
    "textures" : [
        {
            "sampler" : 0,
            "source" : 0
        }
    ],
    "images" : [
        {
            "mimeType" : "image/png",
            "name" : "PolygonFarm_Texture_01_A",
            "uri" : "textures/PolygonFarm_Texture_01_A.png"
        }
    ],
    "accessors" : [
        {
            "bufferView" : 0,
            "componentType" : 5126,
            "count" : 974,
            "max" : [
                -58.911376953125,
                -43.098876953125,
                0.96331787109375
            ],
            "min" : [
                -896.5662841796875,
                -911.739013671875,
                -103.31519317626953
            ],
            "type" : "VEC3"
        },
        {
            "bufferView" : 1,
            "componentType" : 5126,
            "count" : 974,
            "type" : "VEC3"
        },
        {
            "bufferView" : 2,
            "componentType" : 5126,
            "count" : 974,
            "type" : "VEC2"
        },
        {
            "bufferView" : 3,
            "componentType" : 5126,
            "count" : 974,
            "type" : "VEC2"
        },
        {
            "bufferView" : 4,
            "componentType" : 5123,
            "count" : 1770,
            "type" : "SCALAR"
        },
        {
            "bufferView" : 5,
            "componentType" : 5126,
            "count" : 64,
            "max" : [
                -0.5114121437072754,
                0.8524734973907471,
                -0.32187068462371826
            ],
            "min" : [
                -8.51314926147461,
                -0.04761910438537598,
                -8.849924087524414
            ],
            "type" : "VEC3"
        },
        {
            "bufferView" : 6,
            "componentType" : 5126,
            "count" : 64,
            "type" : "VEC3"
        },
        {
            "bufferView" : 7,
            "componentType" : 5126,
            "count" : 64,
            "type" : "VEC2"
        },
        {
            "bufferView" : 8,
            "componentType" : 5123,
            "count" : 102,
            "type" : "SCALAR"
        }
    ],
    "bufferViews" : [
        {
            "buffer" : 0,
            "byteLength" : 11688,
            "byteOffset" : 0
        },
        {
            "buffer" : 0,
            "byteLength" : 11688,
            "byteOffset" : 11688
        },
        {
            "buffer" : 0,
            "byteLength" : 7792,
            "byteOffset" : 23376
        },
        {
            "buffer" : 0,
            "byteLength" : 7792,
            "byteOffset" : 31168
        },
        {
            "buffer" : 0,
            "byteLength" : 3540,
            "byteOffset" : 38960
        },
        {
            "buffer" : 0,
            "byteLength" : 768,
            "byteOffset" : 42500
        },
        {
            "buffer" : 0,
            "byteLength" : 768,
            "byteOffset" : 43268
        },
        {
            "buffer" : 0,
            "byteLength" : 512,
            "byteOffset" : 44036
        },
        {
            "buffer" : 0,
            "byteLength" : 204,
            "byteOffset" : 44548
        }
    ],
    "samplers" : [
        {
            "magFilter" : 9729,
            "minFilter" : 9986
        }
    ],
    "buffers" : [
        {
            "byteLength" : 44752,
            "uri" : "house_floor.bin"
        }
    ]
}
