{
    "asset" : {
        "generator" : "Khronos glTF Blender I/O v1.4.40",
        "version" : "2.0"
    },
    "scene" : 0,
    "scenes" : [
        {
            "name" : "Scene",
            "nodes" : [
                0,
                1,
                6
            ]
        }
    ],
    "nodes" : [
        {
            "mesh" : 0,
            "name" : "cube_collider",
            "translation" : [
                0.2586634159088135,
                0.013703132048249245,
                -0.1317020058631897
            ]
        },
        {
            "mesh" : 1,
            "name" : "pallet",
            "rotation" : [
                0.5231301784515381,
                0.47574660181999207,
                -0.47574669122695923,
                0.5231300592422485
            ],
            "scale" : [
                0.009999999776482582,
                0.009999999776482582,
                0.009999999776482582
            ],
            "translation" : [
                0.2586632966995239,
                0.013703132048249245,
                -0.13170212507247925
            ]
        },
        {
            "mesh" : 2,
            "name" : "compostBin_compost",
            "translation" : [
                -0.0042724609375,
                0.0003046989440917969,
                -0.0068359375
            ]
        },
        {
            "mesh" : 3,
            "name" : "compostBin_lid",
            "translation" : [
                -0.003662109375,
                0.0019969940185546875,
                -0.002685546875
            ]
        },
        {
            "children" : [
                2,
                3
            ],
            "mesh" : 4,
            "name" : "compostBin01",
            "rotation" : [
                0.7069846987724304,
                0,
                0,
                0.7072288393974304
            ],
            "scale" : [
                0.009999999776482582,
                0.009999998845160007,
                0.009999998845160007
            ],
            "translation" : [
                -54.9997444152832,
                108.98812103271484,
                -0.03761232644319534
            ]
        },
        {
            "mesh" : 5,
            "name" : "Cube_collider",
            "translation" : [
                -54.99974060058594,
                108.98811340332031,
                -0.037612318992614746
            ]
        },
        {
            "children" : [
                4,
                5
            ],
            "name" : "wooden_box",
            "rotation" : [
                0.5,
                0.4999999701976776,
                -0.5000000596046448,
                0.4999999403953552
            ],
            "scale" : [
                0.009999999776482582,
                0.009999999776482582,
                0.009999999776482582
            ],
            "translation" : [
                -0.8312177658081055,
                0.01332712173461914,
                -0.6816993355751038
            ]
        }
    ],
    "materials" : [
        {
            "doubleSided" : true,
            "name" : "GardenProps_1",
            "pbrMetallicRoughness" : {
                "baseColorTexture" : {
                    "index" : 0,
                    "texCoord" : 0
                },
                "metallicFactor" : 0
            }
        },
        {
            "doubleSided" : true,
            "name" : "Soil",
            "pbrMetallicRoughness" : {
                "metallicFactor" : 0,
                "roughnessFactor" : 0.5527864098548889
            }
        },
        {
            "doubleSided" : true,
            "name" : "RaisedBed_1",
            "pbrMetallicRoughness" : {
                "baseColorTexture" : {
                    "index" : 1,
                    "texCoord" : 0
                },
                "metallicFactor" : 0
            }
        },
        {
            "doubleSided" : true,
            "name" : "Default_Material",
            "pbrMetallicRoughness" : {
                "metallicFactor" : 0,
                "roughnessFactor" : 0.5527864098548889
            }
        }
    ],
    "meshes" : [
        {
            "name" : "Cube.001",
            "primitives" : [
                {
                    "attributes" : {
                        "POSITION" : 0,
                        "NORMAL" : 1,
                        "TEXCOORD_0" : 2
                    },
                    "indices" : 3
                }
            ]
        },
        {
            "name" : "Scene.056",
            "primitives" : [
                {
                    "attributes" : {
                        "POSITION" : 4,
                        "NORMAL" : 5,
                        "TEXCOORD_0" : 6
                    },
                    "indices" : 7,
                    "material" : 0
                }
            ]
        },
        {
            "name" : "Scene.040",
            "primitives" : [
                {
                    "attributes" : {
                        "POSITION" : 8,
                        "NORMAL" : 9,
                        "TEXCOORD_0" : 10
                    },
                    "indices" : 11,
                    "material" : 1
                }
            ]
        },
        {
            "name" : "Scene.041",
            "primitives" : [
                {
                    "attributes" : {
                        "POSITION" : 12,
                        "NORMAL" : 13,
                        "TEXCOORD_0" : 14
                    },
                    "indices" : 15,
                    "material" : 2
                }
            ]
        },
        {
            "name" : "Scene.039",
            "primitives" : [
                {
                    "attributes" : {
                        "POSITION" : 16,
                        "NORMAL" : 17,
                        "TEXCOORD_0" : 18
                    },
                    "indices" : 19,
                    "material" : 2
                }
            ]
        },
        {
            "name" : "Scene.042",
            "primitives" : [
                {
                    "attributes" : {
                        "POSITION" : 20,
                        "NORMAL" : 21,
                        "TEXCOORD_0" : 22
                    },
                    "indices" : 23,
                    "material" : 3
                }
            ]
        }
    ],
    "textures" : [
        {
            "sampler" : 0,
            "source" : 0
        },
        {
            "sampler" : 0,
            "source" : 1
        }
    ],
    "images" : [
        {
            "mimeType" : "image/png",
            "name" : "props_Base",
            "uri" : "textures/props_Base.png"
        },
        {
            "mimeType" : "image/png",
            "name" : "RaisedBed",
            "uri" : "textures/RaisedBed.png"
        }
    ],
    "accessors" : [
        {
            "bufferView" : 0,
            "componentType" : 5126,
            "count" : 36,
            "max" : [
                1.3901065587997437,
                0.1833210289478302,
                -0.006244659423828125
            ],
            "min" : [
                0.06948044896125793,
                -0.20913836359977722,
                -1.2318207025527954
            ],
            "type" : "VEC3"
        },
        {
            "bufferView" : 1,
            "componentType" : 5126,
            "count" : 36,
            "type" : "VEC3"
        },
        {
            "bufferView" : 2,
            "componentType" : 5126,
            "count" : 36,
            "type" : "VEC2"
        },
        {
            "bufferView" : 3,
            "componentType" : 5123,
            "count" : 36,
            "type" : "SCALAR"
        },
        {
            "bufferView" : 4,
            "componentType" : 5126,
            "count" : 606,
            "max" : [
                118.06053924560547,
                126.77735900878906,
                0.03762078285217285
            ],
            "min" : [
                18.06041717529297,
                6.7771759033203125,
                -17.962421417236328
            ],
            "type" : "VEC3"
        },
        {
            "bufferView" : 5,
            "componentType" : 5126,
            "count" : 606,
            "type" : "VEC3"
        },
        {
            "bufferView" : 6,
            "componentType" : 5126,
            "count" : 606,
            "type" : "VEC2"
        },
        {
            "bufferView" : 7,
            "componentType" : 5123,
            "count" : 612,
            "type" : "SCALAR"
        },
        {
            "bufferView" : 8,
            "componentType" : 5126,
            "count" : 45,
            "max" : [
                10704.5390625,
                -3652.299560546875,
                21074.125
            ],
            "min" : [
                301.46337890625,
                -7848.98779296875,
                674.2744140625
            ],
            "type" : "VEC3"
        },
        {
            "bufferView" : 9,
            "componentType" : 5126,
            "count" : 45,
            "type" : "VEC3"
        },
        {
            "bufferView" : 10,
            "componentType" : 5126,
            "count" : 45,
            "type" : "VEC2"
        },
        {
            "bufferView" : 11,
            "componentType" : 5123,
            "count" : 228,
            "type" : "SCALAR"
        },
        {
            "bufferView" : 12,
            "componentType" : 5126,
            "count" : 194,
            "max" : [
                10855.6240234375,
                -6999.9501953125,
                21676.10546875
            ],
            "min" : [
                -111.923828125,
                -7999.96728515625,
                -0.001953125
            ],
            "type" : "VEC3"
        },
        {
            "bufferView" : 13,
            "componentType" : 5126,
            "count" : 194,
            "type" : "VEC3"
        },
        {
            "bufferView" : 14,
            "componentType" : 5126,
            "count" : 194,
            "type" : "VEC2"
        },
        {
            "bufferView" : 15,
            "componentType" : 5123,
            "count" : 204,
            "type" : "SCALAR"
        },
        {
            "bufferView" : 16,
            "componentType" : 5126,
            "count" : 456,
            "max" : [
                10999.9599609375,
                0.0050506591796875,
                22025.88671875
            ],
            "min" : [
                -0.00634765625,
                -7499.9833984375,
                -228.2587890625
            ],
            "type" : "VEC3"
        },
        {
            "bufferView" : 17,
            "componentType" : 5126,
            "count" : 456,
            "type" : "VEC3"
        },
        {
            "bufferView" : 18,
            "componentType" : 5126,
            "count" : 456,
            "type" : "VEC2"
        },
        {
            "bufferView" : 19,
            "componentType" : 5123,
            "count" : 456,
            "type" : "SCALAR"
        },
        {
            "bufferView" : 20,
            "componentType" : 5126,
            "count" : 24,
            "max" : [
                110.31304931640625,
                0.39487457275390625,
                -2.7417283058166504
            ],
            "min" : [
                -0.19461441040039062,
                -214.59266662597656,
                -80.71674346923828
            ],
            "type" : "VEC3"
        },
        {
            "bufferView" : 21,
            "componentType" : 5126,
            "count" : 24,
            "type" : "VEC3"
        },
        {
            "bufferView" : 22,
            "componentType" : 5126,
            "count" : 24,
            "type" : "VEC2"
        },
        {
            "bufferView" : 23,
            "componentType" : 5123,
            "count" : 36,
            "type" : "SCALAR"
        }
    ],
    "bufferViews" : [
        {
            "buffer" : 0,
            "byteLength" : 432,
            "byteOffset" : 0
        },
        {
            "buffer" : 0,
            "byteLength" : 432,
            "byteOffset" : 432
        },
        {
            "buffer" : 0,
            "byteLength" : 288,
            "byteOffset" : 864
        },
        {
            "buffer" : 0,
            "byteLength" : 72,
            "byteOffset" : 1152
        },
        {
            "buffer" : 0,
            "byteLength" : 7272,
            "byteOffset" : 1224
        },
        {
            "buffer" : 0,
            "byteLength" : 7272,
            "byteOffset" : 8496
        },
        {
            "buffer" : 0,
            "byteLength" : 4848,
            "byteOffset" : 15768
        },
        {
            "buffer" : 0,
            "byteLength" : 1224,
            "byteOffset" : 20616
        },
        {
            "buffer" : 0,
            "byteLength" : 540,
            "byteOffset" : 21840
        },
        {
            "buffer" : 0,
            "byteLength" : 540,
            "byteOffset" : 22380
        },
        {
            "buffer" : 0,
            "byteLength" : 360,
            "byteOffset" : 22920
        },
        {
            "buffer" : 0,
            "byteLength" : 456,
            "byteOffset" : 23280
        },
        {
            "buffer" : 0,
            "byteLength" : 2328,
            "byteOffset" : 23736
        },
        {
            "buffer" : 0,
            "byteLength" : 2328,
            "byteOffset" : 26064
        },
        {
            "buffer" : 0,
            "byteLength" : 1552,
            "byteOffset" : 28392
        },
        {
            "buffer" : 0,
            "byteLength" : 408,
            "byteOffset" : 29944
        },
        {
            "buffer" : 0,
            "byteLength" : 5472,
            "byteOffset" : 30352
        },
        {
            "buffer" : 0,
            "byteLength" : 5472,
            "byteOffset" : 35824
        },
        {
            "buffer" : 0,
            "byteLength" : 3648,
            "byteOffset" : 41296
        },
        {
            "buffer" : 0,
            "byteLength" : 912,
            "byteOffset" : 44944
        },
        {
            "buffer" : 0,
            "byteLength" : 288,
            "byteOffset" : 45856
        },
        {
            "buffer" : 0,
            "byteLength" : 288,
            "byteOffset" : 46144
        },
        {
            "buffer" : 0,
            "byteLength" : 192,
            "byteOffset" : 46432
        },
        {
            "buffer" : 0,
            "byteLength" : 72,
            "byteOffset" : 46624
        }
    ],
    "samplers" : [
        {
            "magFilter" : 9729,
            "minFilter" : 9986
        }
    ],
    "buffers" : [
        {
            "byteLength" : 46696,
            "uri" : "toolbox.bin"
        }
    ]
}
