{
    "asset" : {
        "generator" : "Khronos glTF Blender I/O v1.4.40",
        "version" : "2.0"
    },
    "scene" : 0,
    "scenes" : [
        {
            "name" : "Scene",
            "nodes" : [
                0,
                1,
                4,
                5
            ]
        }
    ],
    "nodes" : [
        {
            "name" : "Light",
            "rotation" : [
                0.16907575726509094,
                0.7558803558349609,
                -0.27217137813568115,
                0.570947527885437
            ],
            "translation" : [
                4.076245307922363,
                5.903861999511719,
                -1.0054539442062378
            ]
        },
        {
            "name" : "Camera",
            "rotation" : [
                0.483536034822464,
                0.33687159419059753,
                -0.20870360732078552,
                0.7804827094078064
            ],
            "translation" : [
                7.358891487121582,
                4.958309173583984,
                6.925790786743164
            ]
        },
        {
            "mesh" : 0,
            "name" : "compostBin_compost",
            "translation" : [
                0.0301513671875,
                0.2461722195148468,
                0
            ]
        },
        {
            "mesh" : 1,
            "name" : "compostBin_lid",
            "translation" : [
                53.5565185546875,
                0.6076338291168213,
                -74.99946594238281
            ]
        },
        {
            "children" : [
                2,
                3
            ],
            "mesh" : 2,
            "name" : "compostBin01",
            "rotation" : [
                0.7071068286895752,
                0,
                0,
                0.7071067094802856
            ],
            "scale" : [
                0.009999999776482582,
                0.009999999776482582,
                0.009999999776482582
            ]
        },
        {
            "mesh" : 3,
            "name" : "Cube_collider"
        }
    ],
    "materials" : [
        {
            "doubleSided" : true,
            "name" : "Soil",
            "pbrMetallicRoughness" : {
                "baseColorTexture" : {
                    "index" : 0,
                    "texCoord" : 0
                },
                "metallicFactor" : 0,
                "roughnessFactor" : 0.5527864098548889
            }
        },
        {
            "doubleSided" : true,
            "name" : "RaisedBed",
            "pbrMetallicRoughness" : {
                "baseColorTexture" : {
                    "index" : 1,
                    "texCoord" : 0
                },
                "metallicFactor" : 0,
                "roughnessFactor" : 0.5527864098548889
            }
        }
    ],
    "meshes" : [
        {
            "name" : "Scene.001",
            "primitives" : [
                {
                    "attributes" : {
                        "POSITION" : 0,
                        "NORMAL" : 1,
                        "TEXCOORD_0" : 2
                    },
                    "indices" : 3,
                    "material" : 0
                }
            ]
        },
        {
            "name" : "Scene.002",
            "primitives" : [
                {
                    "attributes" : {
                        "POSITION" : 4,
                        "NORMAL" : 5,
                        "TEXCOORD_0" : 6
                    },
                    "indices" : 7,
                    "material" : 1
                }
            ]
        },
        {
            "name" : "Scene",
            "primitives" : [
                {
                    "attributes" : {
                        "POSITION" : 8,
                        "NORMAL" : 9,
                        "TEXCOORD_0" : 10
                    },
                    "indices" : 11,
                    "material" : 1
                }
            ]
        },
        {
            "name" : "Cube.001",
            "primitives" : [
                {
                    "attributes" : {
                        "POSITION" : 12,
                        "NORMAL" : 13,
                        "TEXCOORD_0" : 14
                    },
                    "indices" : 15
                }
            ]
        }
    ],
    "textures" : [
        {
            "sampler" : 0,
            "source" : 0
        },
        {
            "sampler" : 0,
            "source" : 1
        }
    ],
    "images" : [
        {
            "mimeType" : "image/png",
            "name" : "DiffuseColor_Texture_1",
            "uri" : "textures/DiffuseColor_Texture_1.png"
        },
        {
            "mimeType" : "image/png",
            "name" : "DiffuseColor_Texture",
            "uri" : "textures/DiffuseColor_Texture.png"
        }
    ],
    "accessors" : [
        {
            "bufferView" : 0,
            "componentType" : 5126,
            "count" : 45,
            "max" : [
                52.01549530029297,
                101.9992446899414,
                -36.522979736328125
            ],
            "min" : [
                -52.0152702331543,
                -101.9992446899414,
                -78.48986053466797
            ],
            "type" : "VEC3"
        },
        {
            "bufferView" : 1,
            "componentType" : 5126,
            "count" : 45,
            "type" : "VEC3"
        },
        {
            "bufferView" : 2,
            "componentType" : 5126,
            "count" : 45,
            "type" : "VEC2"
        },
        {
            "bufferView" : 3,
            "componentType" : 5123,
            "count" : 228,
            "type" : "SCALAR"
        },
        {
            "bufferView" : 4,
            "componentType" : 5126,
            "count" : 146,
            "max" : [
                -3.0517578125e-05,
                108.38053131103516,
                4.999978065490723
            ],
            "min" : [
                -109.67550659179688,
                -108.38055419921875,
                -5.000190258026123
            ],
            "type" : "VEC3"
        },
        {
            "bufferView" : 5,
            "componentType" : 5126,
            "count" : 146,
            "type" : "VEC3"
        },
        {
            "bufferView" : 6,
            "componentType" : 5126,
            "count" : 146,
            "type" : "VEC2"
        },
        {
            "bufferView" : 7,
            "componentType" : 5123,
            "count" : 204,
            "type" : "SCALAR"
        },
        {
            "bufferView" : 8,
            "componentType" : 5126,
            "count" : 388,
            "max" : [
                54.99985122680664,
                111.2707290649414,
                6.866455078125e-05
            ],
            "min" : [
                -54.99980926513672,
                -111.27073669433594,
                -74.99981689453125
            ],
            "type" : "VEC3"
        },
        {
            "bufferView" : 9,
            "componentType" : 5126,
            "count" : 388,
            "type" : "VEC3"
        },
        {
            "bufferView" : 10,
            "componentType" : 5126,
            "count" : 388,
            "type" : "VEC2"
        },
        {
            "bufferView" : 11,
            "componentType" : 5123,
            "count" : 456,
            "type" : "SCALAR"
        },
        {
            "bufferView" : 12,
            "componentType" : 5126,
            "count" : 24,
            "max" : [
                0.5531331300735474,
                0.8075435757637024,
                1.093829870223999
            ],
            "min" : [
                -0.5519435405731201,
                0.027793407440185547,
                -1.0560455322265625
            ],
            "type" : "VEC3"
        },
        {
            "bufferView" : 13,
            "componentType" : 5126,
            "count" : 24,
            "type" : "VEC3"
        },
        {
            "bufferView" : 14,
            "componentType" : 5126,
            "count" : 24,
            "type" : "VEC2"
        },
        {
            "bufferView" : 15,
            "componentType" : 5123,
            "count" : 36,
            "type" : "SCALAR"
        }
    ],
    "bufferViews" : [
        {
            "buffer" : 0,
            "byteLength" : 540,
            "byteOffset" : 0
        },
        {
            "buffer" : 0,
            "byteLength" : 540,
            "byteOffset" : 540
        },
        {
            "buffer" : 0,
            "byteLength" : 360,
            "byteOffset" : 1080
        },
        {
            "buffer" : 0,
            "byteLength" : 456,
            "byteOffset" : 1440
        },
        {
            "buffer" : 0,
            "byteLength" : 1752,
            "byteOffset" : 1896
        },
        {
            "buffer" : 0,
            "byteLength" : 1752,
            "byteOffset" : 3648
        },
        {
            "buffer" : 0,
            "byteLength" : 1168,
            "byteOffset" : 5400
        },
        {
            "buffer" : 0,
            "byteLength" : 408,
            "byteOffset" : 6568
        },
        {
            "buffer" : 0,
            "byteLength" : 4656,
            "byteOffset" : 6976
        },
        {
            "buffer" : 0,
            "byteLength" : 4656,
            "byteOffset" : 11632
        },
        {
            "buffer" : 0,
            "byteLength" : 3104,
            "byteOffset" : 16288
        },
        {
            "buffer" : 0,
            "byteLength" : 912,
            "byteOffset" : 19392
        },
        {
            "buffer" : 0,
            "byteLength" : 288,
            "byteOffset" : 20304
        },
        {
            "buffer" : 0,
            "byteLength" : 288,
            "byteOffset" : 20592
        },
        {
            "buffer" : 0,
            "byteLength" : 192,
            "byteOffset" : 20880
        },
        {
            "buffer" : 0,
            "byteLength" : 72,
            "byteOffset" : 21072
        }
    ],
    "samplers" : [
        {
            "magFilter" : 9729,
            "minFilter" : 9986
        }
    ],
    "buffers" : [
        {
            "byteLength" : 21144,
            "uri" : "wooden_box.bin"
        }
    ]
}
