{
    "asset" : {
        "generator" : "Khronos glTF Blender I/O v1.4.40",
        "version" : "2.0"
    },
    "scene" : 0,
    "scenes" : [
        {
            "name" : "Scene",
            "nodes" : [
                0,
                1,
                3
            ]
        }
    ],
    "nodes" : [
        {
            "name" : "Light",
            "rotation" : [
                0.16907575726509094,
                0.7558803558349609,
                -0.27217137813568115,
                0.570947527885437
            ],
            "translation" : [
                4.076245307922363,
                5.903861999511719,
                -1.0054539442062378
            ]
        },
        {
            "name" : "Camera",
            "rotation" : [
                0.483536034822464,
                0.33687159419059753,
                -0.20870360732078552,
                0.7804827094078064
            ],
            "translation" : [
                7.358891487121582,
                4.958309173583984,
                6.925790786743164
            ]
        },
        {
            "mesh" : 0,
            "name" : "bucket_handle",
            "translation" : [
                -2.288818359375e-05,
                0,
                -32.93568801879883
            ]
        },
        {
            "children" : [
                2
            ],
            "mesh" : 1,
            "name" : "bucket__1_",
            "rotation" : [
                0.4581461548805237,
                0.5386112928390503,
                -0.5386112928390503,
                0.4581461250782013
            ],
            "scale" : [
                0.009999997913837433,
                0.009999997913837433,
                0.009999999776482582
            ]
        }
    ],
    "materials" : [
        {
            "doubleSided" : true,
            "name" : "GardenProps",
            "pbrMetallicRoughness" : {
                "baseColorTexture" : {
                    "index" : 0,
                    "texCoord" : 0
                },
                "metallicFactor" : 0
            }
        }
    ],
    "meshes" : [
        {
            "name" : "Scene.001",
            "primitives" : [
                {
                    "attributes" : {
                        "POSITION" : 0,
                        "NORMAL" : 1,
                        "TEXCOORD_0" : 2
                    },
                    "indices" : 3,
                    "material" : 0
                }
            ]
        },
        {
            "name" : "Scene",
            "primitives" : [
                {
                    "attributes" : {
                        "POSITION" : 4,
                        "NORMAL" : 5,
                        "TEXCOORD_0" : 6
                    },
                    "indices" : 7,
                    "material" : 0
                }
            ]
        }
    ],
    "textures" : [
        {
            "sampler" : 0,
            "source" : 0
        }
    ],
    "images" : [
        {
            "mimeType" : "image/png",
            "name" : "props2_Base",
            "uri" : "textures/props2_Base.png"
        }
    ],
    "accessors" : [
        {
            "bufferView" : 0,
            "componentType" : 5126,
            "count" : 141,
            "max" : [
                0.3197516202926636,
                20.465173721313477,
                10.581990242004395
            ],
            "min" : [
                -17.550519943237305,
                -20.465173721313477,
                -0.4288935661315918
            ],
            "type" : "VEC3"
        },
        {
            "bufferView" : 1,
            "componentType" : 5126,
            "count" : 141,
            "type" : "VEC3"
        },
        {
            "bufferView" : 2,
            "componentType" : 5126,
            "count" : 141,
            "type" : "VEC2"
        },
        {
            "bufferView" : 3,
            "componentType" : 5123,
            "count" : 576,
            "type" : "SCALAR"
        },
        {
            "bufferView" : 4,
            "componentType" : 5126,
            "count" : 224,
            "max" : [
                16.487083435058594,
                18.24942398071289,
                8.420321137236897e-06
            ],
            "min" : [
                -16.487083435058594,
                -18.249435424804688,
                -34.862693786621094
            ],
            "type" : "VEC3"
        },
        {
            "bufferView" : 5,
            "componentType" : 5126,
            "count" : 224,
            "type" : "VEC3"
        },
        {
            "bufferView" : 6,
            "componentType" : 5126,
            "count" : 224,
            "type" : "VEC2"
        },
        {
            "bufferView" : 7,
            "componentType" : 5123,
            "count" : 792,
            "type" : "SCALAR"
        }
    ],
    "bufferViews" : [
        {
            "buffer" : 0,
            "byteLength" : 1692,
            "byteOffset" : 0
        },
        {
            "buffer" : 0,
            "byteLength" : 1692,
            "byteOffset" : 1692
        },
        {
            "buffer" : 0,
            "byteLength" : 1128,
            "byteOffset" : 3384
        },
        {
            "buffer" : 0,
            "byteLength" : 1152,
            "byteOffset" : 4512
        },
        {
            "buffer" : 0,
            "byteLength" : 2688,
            "byteOffset" : 5664
        },
        {
            "buffer" : 0,
            "byteLength" : 2688,
            "byteOffset" : 8352
        },
        {
            "buffer" : 0,
            "byteLength" : 1792,
            "byteOffset" : 11040
        },
        {
            "buffer" : 0,
            "byteLength" : 1584,
            "byteOffset" : 12832
        }
    ],
    "samplers" : [
        {
            "magFilter" : 9729,
            "minFilter" : 9986
        }
    ],
    "buffers" : [
        {
            "byteLength" : 14416,
            "uri" : "bucket.bin"
        }
    ]
}
