{
    "asset" : {
        "generator" : "Khronos glTF Blender I/O v1.4.40",
        "version" : "2.0"
    },
    "scene" : 0,
    "scenes" : [
        {
            "name" : "Scene",
            "nodes" : [
                1
            ]
        }
    ],
    "nodes" : [
        {
            "mesh" : 0,
            "name" : "plant_pumpkin_S3_crop",
            "translation" : [
                0,
                3.337860107421875e-06,
                0
            ]
        },
        {
            "children" : [
                0
            ],
            "mesh" : 1,
            "name" : "plant_pumpkin_S3",
            "rotation" : [
                0.7071068286895752,
                0,
                0,
                0.7071067094802856
            ],
            "scale" : [
                0.009999999776482582,
                0.009999999776482582,
                0.009999999776482582
            ]
        }
    ],
    "materials" : [
        {
            "alphaMode" : "BLEND",
            "name" : "Plant_Pumpkin",
            "pbrMetallicRoughness" : {
                "baseColorTexture" : {
                    "index" : 0,
                    "texCoord" : 0
                },
                "metallicFactor" : 0
            }
        }
    ],
    "meshes" : [
        {
            "name" : "Scene.003",
            "primitives" : [
                {
                    "attributes" : {
                        "POSITION" : 0,
                        "NORMAL" : 1,
                        "TEXCOORD_0" : 2
                    },
                    "indices" : 3,
                    "material" : 0
                }
            ]
        },
        {
            "name" : "Scene.002",
            "primitives" : [
                {
                    "attributes" : {
                        "POSITION" : 4,
                        "NORMAL" : 5,
                        "TEXCOORD_0" : 6
                    },
                    "indices" : 7,
                    "material" : 0
                }
            ]
        }
    ],
    "textures" : [
        {
            "sampler" : 0,
            "source" : 0
        }
    ],
    "images" : [
        {
            "mimeType" : "image/png",
            "name" : "pumpkin_Base-DiffuseColor_Texture",
            "uri" : "textures/pumpkin_Base-DiffuseColor_Texture.png"
        }
    ],
    "accessors" : [
        {
            "bufferView" : 0,
            "componentType" : 5126,
            "count" : 477,
            "max" : [
                19.426137924194336,
                99.5489273071289,
                2.742374897003174
            ],
            "min" : [
                -25.616498947143555,
                27.179027557373047,
                -26.582252502441406
            ],
            "type" : "VEC3"
        },
        {
            "bufferView" : 1,
            "componentType" : 5126,
            "count" : 477,
            "type" : "VEC3"
        },
        {
            "bufferView" : 2,
            "componentType" : 5126,
            "count" : 477,
            "type" : "VEC2"
        },
        {
            "bufferView" : 3,
            "componentType" : 5123,
            "count" : 2151,
            "type" : "SCALAR"
        },
        {
            "bufferView" : 4,
            "componentType" : 5126,
            "count" : 278,
            "max" : [
                26.51393699645996,
                119.39580535888672,
                1.6899030208587646
            ],
            "min" : [
                -58.76931381225586,
                -0.1172027587890625,
                -36.10285949707031
            ],
            "type" : "VEC3"
        },
        {
            "bufferView" : 5,
            "componentType" : 5126,
            "count" : 278,
            "type" : "VEC3"
        },
        {
            "bufferView" : 6,
            "componentType" : 5126,
            "count" : 278,
            "type" : "VEC2"
        },
        {
            "bufferView" : 7,
            "componentType" : 5123,
            "count" : 936,
            "type" : "SCALAR"
        }
    ],
    "bufferViews" : [
        {
            "buffer" : 0,
            "byteLength" : 5724,
            "byteOffset" : 0
        },
        {
            "buffer" : 0,
            "byteLength" : 5724,
            "byteOffset" : 5724
        },
        {
            "buffer" : 0,
            "byteLength" : 3816,
            "byteOffset" : 11448
        },
        {
            "buffer" : 0,
            "byteLength" : 4302,
            "byteOffset" : 15264
        },
        {
            "buffer" : 0,
            "byteLength" : 3336,
            "byteOffset" : 19568
        },
        {
            "buffer" : 0,
            "byteLength" : 3336,
            "byteOffset" : 22904
        },
        {
            "buffer" : 0,
            "byteLength" : 2224,
            "byteOffset" : 26240
        },
        {
            "buffer" : 0,
            "byteLength" : 1872,
            "byteOffset" : 28464
        }
    ],
    "samplers" : [
        {
            "magFilter" : 9729,
            "minFilter" : 9986
        }
    ],
    "buffers" : [
        {
            "byteLength" : 30336,
            "uri" : "plant_pumpkin_S3.bin"
        }
    ]
}
