{
    "asset" : {
        "generator" : "Khronos glTF Blender I/O v1.4.40",
        "version" : "2.0"
    },
    "scene" : 0,
    "scenes" : [
        {
            "name" : "Scene",
            "nodes" : [
                0
            ]
        }
    ],
    "nodes" : [
        {
            "mesh" : 0,
            "name" : "SM_Prop_Fence_Wood_Gate_01",
            "rotation" : [
                0.4999999701976776,
                -0.5,
                0.5000001192092896,
                0.49999988079071045
            ],
            "scale" : [
                0.004950400907546282,
                0.010000002570450306,
                0.009999999776482582
            ],
            "translation" : [
                12.854000091552734,
                0.3514290452003479,
                -5.016850471496582
            ]
        }
    ],
    "materials" : [
        {
            "doubleSided" : true,
            "name" : "PolygonFarm_01_A",
            "pbrMetallicRoughness" : {
                "baseColorTexture" : {
                    "index" : 0,
                    "texCoord" : 0
                },
                "metallicFactor" : 0,
                "roughnessFactor" : 0.5527864098548889
            }
        }
    ],
    "meshes" : [
        {
            "name" : "Scene.046",
            "primitives" : [
                {
                    "attributes" : {
                        "POSITION" : 0,
                        "NORMAL" : 1,
                        "TEXCOORD_0" : 2
                    },
                    "indices" : 3,
                    "material" : 0
                }
            ]
        }
    ],
    "textures" : [
        {
            "sampler" : 0,
            "source" : 0
        }
    ],
    "images" : [
        {
            "mimeType" : "image/png",
            "name" : "PolygonFarm_Texture_01_A",
            "uri" : "textures/PolygonFarm_Texture_01_A.png"
        }
    ],
    "accessors" : [
        {
            "bufferView" : 0,
            "componentType" : 5126,
            "count" : 340,
            "max" : [
                505.322021484375,
                8.415603637695312,
                33.81024932861328
            ],
            "min" : [
                -5.3220367431640625,
                -8.415603637695312,
                -132.57693481445312
            ],
            "type" : "VEC3"
        },
        {
            "bufferView" : 1,
            "componentType" : 5126,
            "count" : 340,
            "type" : "VEC3"
        },
        {
            "bufferView" : 2,
            "componentType" : 5126,
            "count" : 340,
            "type" : "VEC2"
        },
        {
            "bufferView" : 3,
            "componentType" : 5123,
            "count" : 576,
            "type" : "SCALAR"
        }
    ],
    "bufferViews" : [
        {
            "buffer" : 0,
            "byteLength" : 4080,
            "byteOffset" : 0
        },
        {
            "buffer" : 0,
            "byteLength" : 4080,
            "byteOffset" : 4080
        },
        {
            "buffer" : 0,
            "byteLength" : 2720,
            "byteOffset" : 8160
        },
        {
            "buffer" : 0,
            "byteLength" : 1152,
            "byteOffset" : 10880
        }
    ],
    "samplers" : [
        {
            "magFilter" : 9729,
            "minFilter" : 9986
        }
    ],
    "buffers" : [
        {
            "byteLength" : 12032,
            "uri" : "fencegatedoorframe.bin"
        }
    ]
}
