{
    "asset" : {
        "generator" : "Khronos glTF Blender I/O v1.4.40",
        "version" : "2.0"
    },
    "scene" : 0,
    "scenes" : [
        {
            "name" : "Scene",
            "nodes" : [
                0,
                1,
                2,
                3,
                4,
                5,
                6
            ]
        }
    ],
    "nodes" : [
        {
            "name" : "Camera",
            "rotation" : [
                0.483536034822464,
                0.33687159419059753,
                -0.20870360732078552,
                0.7804827094078064
            ],
            "translation" : [
                7.358891487121582,
                4.958309173583984,
                6.925790786743164
            ]
        },
        {
            "name" : "Light",
            "rotation" : [
                0.16907575726509094,
                0.7558803558349609,
                -0.27217137813568115,
                0.570947527885437
            ],
            "translation" : [
                4.076245307922363,
                5.903861999511719,
                -1.0054539442062378
            ]
        },
        {
            "mesh" : 0,
            "name" : "Cabbage_Stage4_Obj",
            "rotation" : [
                0.7071068286895752,
                0,
                0,
                0.7071067094802856
            ],
            "scale" : [
                0,
                0,
                0
            ]
        },
        {
            "mesh" : 1,
            "name" : "Cabbage_Stage3_Obj",
            "rotation" : [
                0.7071068286895752,
                0,
                0,
                0.7071067094802856
            ],
            "scale" : [
                0,
                0,
                0
            ]
        },
        {
            "mesh" : 2,
            "name" : "Cabbage_Stage2_Obj",
            "rotation" : [
                0.7071068286895752,
                0,
                0,
                0.7071067094802856
            ],
            "scale" : [
                0,
                0,
                0
            ]
        },
        {
            "mesh" : 3,
            "name" : "Cabbage_Stage1_Obj",
            "rotation" : [
                0.7071068286895752,
                0,
                0,
                0.7071067094802856
            ],
            "scale" : [
                0,
                0,
                0
            ]
        },
        {
            "mesh" : 4,
            "name" : "Cube_collider",
            "scale" : [
                0.2886369824409485,
                0.21739958226680756,
                0.2886369824409485
            ],
            "translation" : [
                0,
                0.22628241777420044,
                0
            ]
        }
    ],
    "animations" : [
        {
            "channels" : [
                {
                    "sampler" : 0,
                    "target" : {
                        "node" : 2,
                        "path" : "rotation"
                    }
                },
                {
                    "sampler" : 1,
                    "target" : {
                        "node" : 2,
                        "path" : "scale"
                    }
                }
            ],
            "name" : "Cabbage_Stage4",
            "samplers" : [
                {
                    "input" : 20,
                    "interpolation" : "LINEAR",
                    "output" : 21
                },
                {
                    "input" : 20,
                    "interpolation" : "LINEAR",
                    "output" : 22
                }
            ]
        },
        {
            "channels" : [
                {
                    "sampler" : 0,
                    "target" : {
                        "node" : 3,
                        "path" : "scale"
                    }
                },
                {
                    "sampler" : 1,
                    "target" : {
                        "node" : 3,
                        "path" : "rotation"
                    }
                }
            ],
            "name" : "Cabbage_Stage3",
            "samplers" : [
                {
                    "input" : 23,
                    "interpolation" : "LINEAR",
                    "output" : 24
                },
                {
                    "input" : 23,
                    "interpolation" : "LINEAR",
                    "output" : 25
                }
            ]
        },
        {
            "channels" : [
                {
                    "sampler" : 0,
                    "target" : {
                        "node" : 4,
                        "path" : "scale"
                    }
                },
                {
                    "sampler" : 1,
                    "target" : {
                        "node" : 4,
                        "path" : "rotation"
                    }
                }
            ],
            "name" : "Cabbage_Stage2",
            "samplers" : [
                {
                    "input" : 26,
                    "interpolation" : "LINEAR",
                    "output" : 27
                },
                {
                    "input" : 26,
                    "interpolation" : "LINEAR",
                    "output" : 28
                }
            ]
        },
        {
            "channels" : [
                {
                    "sampler" : 0,
                    "target" : {
                        "node" : 5,
                        "path" : "scale"
                    }
                },
                {
                    "sampler" : 1,
                    "target" : {
                        "node" : 5,
                        "path" : "rotation"
                    }
                }
            ],
            "name" : "Cabbage_Stage1",
            "samplers" : [
                {
                    "input" : 29,
                    "interpolation" : "LINEAR",
                    "output" : 30
                },
                {
                    "input" : 29,
                    "interpolation" : "LINEAR",
                    "output" : 31
                }
            ]
        },
        {
            "channels" : [
                {
                    "sampler" : 0,
                    "target" : {
                        "node" : 6,
                        "path" : "translation"
                    }
                },
                {
                    "sampler" : 1,
                    "target" : {
                        "node" : 6,
                        "path" : "rotation"
                    }
                },
                {
                    "sampler" : 2,
                    "target" : {
                        "node" : 6,
                        "path" : "scale"
                    }
                }
            ],
            "name" : "CubeAction",
            "samplers" : [
                {
                    "input" : 32,
                    "interpolation" : "STEP",
                    "output" : 33
                },
                {
                    "input" : 32,
                    "interpolation" : "STEP",
                    "output" : 34
                },
                {
                    "input" : 32,
                    "interpolation" : "STEP",
                    "output" : 35
                }
            ]
        }
    ],
    "materials" : [
        {
            "alphaMode" : "BLEND",
            "doubleSided" : true,
            "name" : "Plant_Cabbage.001",
            "pbrMetallicRoughness" : {
                "baseColorTexture" : {
                    "index" : 0,
                    "texCoord" : 0
                },
                "metallicFactor" : 0
            }
        }
    ],
    "meshes" : [
        {
            "name" : "Scene.003",
            "primitives" : [
                {
                    "attributes" : {
                        "POSITION" : 0,
                        "NORMAL" : 1,
                        "TEXCOORD_0" : 2
                    },
                    "indices" : 3,
                    "material" : 0
                }
            ]
        },
        {
            "name" : "Scene.004",
            "primitives" : [
                {
                    "attributes" : {
                        "POSITION" : 4,
                        "NORMAL" : 5,
                        "TEXCOORD_0" : 6
                    },
                    "indices" : 7,
                    "material" : 0
                }
            ]
        },
        {
            "name" : "Scene.005",
            "primitives" : [
                {
                    "attributes" : {
                        "POSITION" : 8,
                        "NORMAL" : 9,
                        "TEXCOORD_0" : 10
                    },
                    "indices" : 11,
                    "material" : 0
                }
            ]
        },
        {
            "name" : "Scene.006",
            "primitives" : [
                {
                    "attributes" : {
                        "POSITION" : 12,
                        "NORMAL" : 13,
                        "TEXCOORD_0" : 14
                    },
                    "indices" : 15,
                    "material" : 0
                }
            ]
        },
        {
            "name" : "Cube",
            "primitives" : [
                {
                    "attributes" : {
                        "POSITION" : 16,
                        "NORMAL" : 17,
                        "TEXCOORD_0" : 18
                    },
                    "indices" : 19
                }
            ]
        }
    ],
    "textures" : [
        {
            "sampler" : 0,
            "source" : 0
        }
    ],
    "images" : [
        {
            "mimeType" : "image/png",
            "name" : "DiffuseColor_Texture-cabbage_Base",
            "uri" : "textures/DiffuseColor_Texture-cabbage_Base.png"
        }
    ],
    "accessors" : [
        {
            "bufferView" : 0,
            "componentType" : 5126,
            "count" : 536,
            "max" : [
                32.15141677856445,
                40.68447494506836,
                4
            ],
            "min" : [
                -32.18498229980469,
                -31.373327255249023,
                -31.87769889831543
            ],
            "type" : "VEC3"
        },
        {
            "bufferView" : 1,
            "componentType" : 5126,
            "count" : 536,
            "type" : "VEC3"
        },
        {
            "bufferView" : 2,
            "componentType" : 5126,
            "count" : 536,
            "type" : "VEC2"
        },
        {
            "bufferView" : 3,
            "componentType" : 5123,
            "count" : 2238,
            "type" : "SCALAR"
        },
        {
            "bufferView" : 4,
            "componentType" : 5126,
            "count" : 497,
            "max" : [
                26.997262954711914,
                30.707731246948242,
                1.999999761581421
            ],
            "min" : [
                -30.045578002929688,
                -29.291948318481445,
                -31.87769889831543
            ],
            "type" : "VEC3"
        },
        {
            "bufferView" : 5,
            "componentType" : 5126,
            "count" : 497,
            "type" : "VEC3"
        },
        {
            "bufferView" : 6,
            "componentType" : 5126,
            "count" : 497,
            "type" : "VEC2"
        },
        {
            "bufferView" : 7,
            "componentType" : 5123,
            "count" : 2112,
            "type" : "SCALAR"
        },
        {
            "bufferView" : 8,
            "componentType" : 5126,
            "count" : 234,
            "max" : [
                31.398061752319336,
                25.12415885925293,
                0.3639429807662964
            ],
            "min" : [
                -26.67460060119629,
                -22.727144241333008,
                -24.433414459228516
            ],
            "type" : "VEC3"
        },
        {
            "bufferView" : 9,
            "componentType" : 5126,
            "count" : 234,
            "type" : "VEC3"
        },
        {
            "bufferView" : 10,
            "componentType" : 5126,
            "count" : 234,
            "type" : "VEC2"
        },
        {
            "bufferView" : 11,
            "componentType" : 5123,
            "count" : 756,
            "type" : "SCALAR"
        },
        {
            "bufferView" : 12,
            "componentType" : 5126,
            "count" : 86,
            "max" : [
                19.654464721679688,
                13.379719734191895,
                0.0034749824553728104
            ],
            "min" : [
                -23.402080535888672,
                -14.93531608581543,
                -18.98430824279785
            ],
            "type" : "VEC3"
        },
        {
            "bufferView" : 13,
            "componentType" : 5126,
            "count" : 86,
            "type" : "VEC3"
        },
        {
            "bufferView" : 14,
            "componentType" : 5126,
            "count" : 86,
            "type" : "VEC2"
        },
        {
            "bufferView" : 15,
            "componentType" : 5123,
            "count" : 234,
            "type" : "SCALAR"
        },
        {
            "bufferView" : 16,
            "componentType" : 5126,
            "count" : 24,
            "max" : [
                0.8919482231140137,
                0.4794389605522156,
                0.8893234729766846
            ],
            "min" : [
                -0.9354952573776245,
                -1,
                -1.0855692625045776
            ],
            "type" : "VEC3"
        },
        {
            "bufferView" : 17,
            "componentType" : 5126,
            "count" : 24,
            "type" : "VEC3"
        },
        {
            "bufferView" : 18,
            "componentType" : 5126,
            "count" : 24,
            "type" : "VEC2"
        },
        {
            "bufferView" : 19,
            "componentType" : 5123,
            "count" : 36,
            "type" : "SCALAR"
        },
        {
            "bufferView" : 20,
            "componentType" : 5126,
            "count" : 39,
            "max" : [
                6.4
            ],
            "min" : [
                4.88
            ],
            "type" : "SCALAR"
        },
        {
            "bufferView" : 21,
            "componentType" : 5126,
            "count" : 39,
            "type" : "VEC4"
        },
        {
            "bufferView" : 22,
            "componentType" : 5126,
            "count" : 39,
            "type" : "VEC3"
        },
        {
            "bufferView" : 23,
            "componentType" : 5126,
            "count" : 78,
            "max" : [
                6.36
            ],
            "min" : [
                3.28
            ],
            "type" : "SCALAR"
        },
        {
            "bufferView" : 24,
            "componentType" : 5126,
            "count" : 78,
            "type" : "VEC3"
        },
        {
            "bufferView" : 25,
            "componentType" : 5126,
            "count" : 78,
            "type" : "VEC4"
        },
        {
            "bufferView" : 26,
            "componentType" : 5126,
            "count" : 78,
            "max" : [
                4.76
            ],
            "min" : [
                1.68
            ],
            "type" : "SCALAR"
        },
        {
            "bufferView" : 27,
            "componentType" : 5126,
            "count" : 78,
            "type" : "VEC3"
        },
        {
            "bufferView" : 28,
            "componentType" : 5126,
            "count" : 78,
            "type" : "VEC4"
        },
        {
            "bufferView" : 29,
            "componentType" : 5126,
            "count" : 80,
            "max" : [
                3.16
            ],
            "min" : [
                0
            ],
            "type" : "SCALAR"
        },
        {
            "bufferView" : 30,
            "componentType" : 5126,
            "count" : 80,
            "type" : "VEC3"
        },
        {
            "bufferView" : 31,
            "componentType" : 5126,
            "count" : 80,
            "type" : "VEC4"
        },
        {
            "bufferView" : 32,
            "componentType" : 5126,
            "count" : 1,
            "max" : [
                6.76
            ],
            "min" : [
                6.76
            ],
            "type" : "SCALAR"
        },
        {
            "bufferView" : 33,
            "componentType" : 5126,
            "count" : 1,
            "type" : "VEC3"
        },
        {
            "bufferView" : 34,
            "componentType" : 5126,
            "count" : 1,
            "type" : "VEC4"
        },
        {
            "bufferView" : 35,
            "componentType" : 5126,
            "count" : 1,
            "type" : "VEC3"
        }
    ],
    "bufferViews" : [
        {
            "buffer" : 0,
            "byteLength" : 6432,
            "byteOffset" : 0
        },
        {
            "buffer" : 0,
            "byteLength" : 6432,
            "byteOffset" : 6432
        },
        {
            "buffer" : 0,
            "byteLength" : 4288,
            "byteOffset" : 12864
        },
        {
            "buffer" : 0,
            "byteLength" : 4476,
            "byteOffset" : 17152
        },
        {
            "buffer" : 0,
            "byteLength" : 5964,
            "byteOffset" : 21628
        },
        {
            "buffer" : 0,
            "byteLength" : 5964,
            "byteOffset" : 27592
        },
        {
            "buffer" : 0,
            "byteLength" : 3976,
            "byteOffset" : 33556
        },
        {
            "buffer" : 0,
            "byteLength" : 4224,
            "byteOffset" : 37532
        },
        {
            "buffer" : 0,
            "byteLength" : 2808,
            "byteOffset" : 41756
        },
        {
            "buffer" : 0,
            "byteLength" : 2808,
            "byteOffset" : 44564
        },
        {
            "buffer" : 0,
            "byteLength" : 1872,
            "byteOffset" : 47372
        },
        {
            "buffer" : 0,
            "byteLength" : 1512,
            "byteOffset" : 49244
        },
        {
            "buffer" : 0,
            "byteLength" : 1032,
            "byteOffset" : 50756
        },
        {
            "buffer" : 0,
            "byteLength" : 1032,
            "byteOffset" : 51788
        },
        {
            "buffer" : 0,
            "byteLength" : 688,
            "byteOffset" : 52820
        },
        {
            "buffer" : 0,
            "byteLength" : 468,
            "byteOffset" : 53508
        },
        {
            "buffer" : 0,
            "byteLength" : 288,
            "byteOffset" : 53976
        },
        {
            "buffer" : 0,
            "byteLength" : 288,
            "byteOffset" : 54264
        },
        {
            "buffer" : 0,
            "byteLength" : 192,
            "byteOffset" : 54552
        },
        {
            "buffer" : 0,
            "byteLength" : 72,
            "byteOffset" : 54744
        },
        {
            "buffer" : 0,
            "byteLength" : 156,
            "byteOffset" : 54816
        },
        {
            "buffer" : 0,
            "byteLength" : 624,
            "byteOffset" : 54972
        },
        {
            "buffer" : 0,
            "byteLength" : 468,
            "byteOffset" : 55596
        },
        {
            "buffer" : 0,
            "byteLength" : 312,
            "byteOffset" : 56064
        },
        {
            "buffer" : 0,
            "byteLength" : 936,
            "byteOffset" : 56376
        },
        {
            "buffer" : 0,
            "byteLength" : 1248,
            "byteOffset" : 57312
        },
        {
            "buffer" : 0,
            "byteLength" : 312,
            "byteOffset" : 58560
        },
        {
            "buffer" : 0,
            "byteLength" : 936,
            "byteOffset" : 58872
        },
        {
            "buffer" : 0,
            "byteLength" : 1248,
            "byteOffset" : 59808
        },
        {
            "buffer" : 0,
            "byteLength" : 320,
            "byteOffset" : 61056
        },
        {
            "buffer" : 0,
            "byteLength" : 960,
            "byteOffset" : 61376
        },
        {
            "buffer" : 0,
            "byteLength" : 1280,
            "byteOffset" : 62336
        },
        {
            "buffer" : 0,
            "byteLength" : 4,
            "byteOffset" : 63616
        },
        {
            "buffer" : 0,
            "byteLength" : 12,
            "byteOffset" : 63620
        },
        {
            "buffer" : 0,
            "byteLength" : 16,
            "byteOffset" : 63632
        },
        {
            "buffer" : 0,
            "byteLength" : 12,
            "byteOffset" : 63648
        }
    ],
    "samplers" : [
        {
            "magFilter" : 9729,
            "minFilter" : 9986
        }
    ],
    "buffers" : [
        {
            "byteLength" : 63660,
            "uri" : "plant_cabbage.bin"
        }
    ]
}
